<svg id="Calque_1" data-name="Calque 1" xmlns="http://www.w3.org/2000/svg" viewBox="0 0 1000 1000"><defs><style>.cls-1{fill:#f59e0b;}.cls-2{fill:#fff;}.cls-3{fill:#f2b86b;}</style></defs><title>Plan de travail 1 copie</title><path class="cls-1" d="M724.93,69.49H275.21a38.19,38.19,0,0,0-33.07,19.09L17.28,478.05a38.2,38.2,0,0,0,0,38.19L242.14,905.71a38.18,38.18,0,0,0,33.07,19.1H724.93A38.18,38.18,0,0,0,758,905.71L982.86,516.24a38.15,38.15,0,0,0,0-38.19L758,88.58A38.19,38.19,0,0,0,724.93,69.49Z"/><path class="cls-2" d="M500.08,646.23v.06L442,746.9c-23.42,29.14-65,37-97.27,18.65A76.4,76.4,0,0,1,311,672.7c19.85-33.5,39.51-67.11,59.36-101.15H254.82a76.2,76.2,0,0,1-1.31-150.49c38.62.48,77.6.9,116.7,1.19C384.69,447.11,399.53,472,414,497.17c7.15,12.46,14.24,24.74,21.51,37.19l21.58,37.19Z"/><path class="cls-3" d="M457.11,422.52c-29.07,0-58-.16-86.88-.33-19.72-33.75-39.6-67.17-59.32-100.42a76.27,76.27,0,0,1,131.16-74.18l58,100.58Z"/><path class="cls-3" d="M689.37,321.77c-20.08,33.43-39.75,67-59.66,100.9H500.08c-14.36,0-28.73,0-43-.12l43-74.38L558,247.56a76.4,76.4,0,0,1,131.36,74.21Z"/></svg>